<svg xmlns="http://www.w3.org/2000/svg" viewBox="56 64 627 488" width="627" height="488" font-family="Verdana,Geneva,sans-serif" font-size="11">
<rect x="56" y="64" width="627" height="488" fill="white"/>
<style>text{paint-order:stroke;stroke:white;stroke-width:2.5px;stroke-linejoin:round}</style>
<g fill="#c4ccd4" stroke="none"><circle cx="72" cy="72" r="0.9"/><circle cx="96" cy="72" r="0.9"/><circle cx="120" cy="72" r="0.9"/><circle cx="144" cy="72" r="0.9"/><circle cx="168" cy="72" r="0.9"/><circle cx="192" cy="72" r="0.9"/><circle cx="216" cy="72" r="0.9"/><circle cx="240" cy="72" r="0.9"/><circle cx="264" cy="72" r="0.9"/><circle cx="288" cy="72" r="0.9"/><circle cx="312" cy="72" r="0.9"/><circle cx="336" cy="72" r="0.9"/><circle cx="360" cy="72" r="0.9"/><circle cx="384" cy="72" r="0.9"/><circle cx="408" cy="72" r="0.9"/><circle cx="432" cy="72" r="0.9"/><circle cx="456" cy="72" r="0.9"/><circle cx="480" cy="72" r="0.9"/><circle cx="504" cy="72" r="0.9"/><circle cx="528" cy="72" r="0.9"/><circle cx="552" cy="72" r="0.9"/><circle cx="576" cy="72" r="0.9"/><circle cx="600" cy="72" r="0.9"/><circle cx="624" cy="72" r="0.9"/><circle cx="648" cy="72" r="0.9"/><circle cx="672" cy="72" r="0.9"/><circle cx="72" cy="96" r="0.9"/><circle cx="96" cy="96" r="0.9"/><circle cx="120" cy="96" r="0.9"/><circle cx="144" cy="96" r="0.9"/><circle cx="168" cy="96" r="0.9"/><circle cx="192" cy="96" r="0.9"/><circle cx="216" cy="96" r="0.9"/><circle cx="240" cy="96" r="0.9"/><circle cx="264" cy="96" r="0.9"/><circle cx="288" cy="96" r="0.9"/><circle cx="312" cy="96" r="0.9"/><circle cx="336" cy="96" r="0.9"/><circle cx="360" cy="96" r="0.9"/><circle cx="384" cy="96" r="0.9"/><circle cx="408" cy="96" r="0.9"/><circle cx="432" cy="96" r="0.9"/><circle cx="456" cy="96" r="0.9"/><circle cx="480" cy="96" r="0.9"/><circle cx="504" cy="96" r="0.9"/><circle cx="528" cy="96" r="0.9"/><circle cx="552" cy="96" r="0.9"/><circle cx="576" cy="96" r="0.9"/><circle cx="600" cy="96" r="0.9"/><circle cx="624" cy="96" r="0.9"/><circle cx="648" cy="96" r="0.9"/><circle cx="672" cy="96" r="0.9"/><circle cx="72" cy="120" r="0.9"/><circle cx="96" cy="120" r="0.9"/><circle cx="120" cy="120" r="0.9"/><circle cx="144" cy="120" r="0.9"/><circle cx="168" cy="120" r="0.9"/><circle cx="192" cy="120" r="0.9"/><circle cx="216" cy="120" r="0.9"/><circle cx="240" cy="120" r="0.9"/><circle cx="264" cy="120" r="0.9"/><circle cx="288" cy="120" r="0.9"/><circle cx="312" cy="120" r="0.9"/><circle cx="336" cy="120" r="0.9"/><circle cx="360" cy="120" r="0.9"/><circle cx="384" cy="120" r="0.9"/><circle cx="408" cy="120" r="0.9"/><circle cx="432" cy="120" r="0.9"/><circle cx="456" cy="120" r="0.9"/><circle cx="480" cy="120" r="0.9"/><circle cx="504" cy="120" r="0.9"/><circle cx="528" cy="120" r="0.9"/><circle cx="552" cy="120" r="0.9"/><circle cx="576" cy="120" r="0.9"/><circle cx="600" cy="120" r="0.9"/><circle cx="624" cy="120" r="0.9"/><circle cx="648" cy="120" r="0.9"/><circle cx="672" cy="120" r="0.9"/><circle cx="72" cy="144" r="0.9"/><circle cx="96" cy="144" r="0.9"/><circle cx="120" cy="144" r="0.9"/><circle cx="144" cy="144" r="0.9"/><circle cx="168" cy="144" r="0.9"/><circle cx="192" cy="144" r="0.9"/><circle cx="216" cy="144" r="0.9"/><circle cx="240" cy="144" r="0.9"/><circle cx="264" cy="144" r="0.9"/><circle cx="288" cy="144" r="0.9"/><circle cx="312" cy="144" r="0.9"/><circle cx="336" cy="144" r="0.9"/><circle cx="360" cy="144" r="0.9"/><circle cx="384" cy="144" r="0.9"/><circle cx="408" cy="144" r="0.9"/><circle cx="432" cy="144" r="0.9"/><circle cx="456" cy="144" r="0.9"/><circle cx="480" cy="144" r="0.9"/><circle cx="504" cy="144" r="0.9"/><circle cx="528" cy="144" r="0.9"/><circle cx="552" cy="144" r="0.9"/><circle cx="576" cy="144" r="0.9"/><circle cx="600" cy="144" r="0.9"/><circle cx="624" cy="144" r="0.9"/><circle cx="648" cy="144" r="0.9"/><circle cx="672" cy="144" r="0.9"/><circle cx="72" cy="168" r="0.9"/><circle cx="96" cy="168" r="0.9"/><circle cx="120" cy="168" r="0.9"/><circle cx="144" cy="168" r="0.9"/><circle cx="168" cy="168" r="0.9"/><circle cx="192" cy="168" r="0.9"/><circle cx="216" cy="168" r="0.9"/><circle cx="240" cy="168" r="0.9"/><circle cx="264" cy="168" r="0.9"/><circle cx="288" cy="168" r="0.9"/><circle cx="312" cy="168" r="0.9"/><circle cx="336" cy="168" r="0.9"/><circle cx="360" cy="168" r="0.9"/><circle cx="384" cy="168" r="0.9"/><circle cx="408" cy="168" r="0.9"/><circle cx="432" cy="168" r="0.9"/><circle cx="456" cy="168" r="0.9"/><circle cx="480" cy="168" r="0.9"/><circle cx="504" cy="168" r="0.9"/><circle cx="528" cy="168" r="0.9"/><circle cx="552" cy="168" r="0.9"/><circle cx="576" cy="168" r="0.9"/><circle cx="600" cy="168" r="0.9"/><circle cx="624" cy="168" r="0.9"/><circle cx="648" cy="168" r="0.9"/><circle cx="672" cy="168" r="0.9"/><circle cx="72" cy="192" r="0.9"/><circle cx="96" cy="192" r="0.9"/><circle cx="120" cy="192" r="0.9"/><circle cx="144" cy="192" r="0.9"/><circle cx="168" cy="192" r="0.9"/><circle cx="192" cy="192" r="0.9"/><circle cx="216" cy="192" r="0.9"/><circle cx="240" cy="192" r="0.9"/><circle cx="264" cy="192" r="0.9"/><circle cx="288" cy="192" r="0.9"/><circle cx="312" cy="192" r="0.9"/><circle cx="336" cy="192" r="0.9"/><circle cx="360" cy="192" r="0.9"/><circle cx="384" cy="192" r="0.9"/><circle cx="408" cy="192" r="0.9"/><circle cx="432" cy="192" r="0.9"/><circle cx="456" cy="192" r="0.9"/><circle cx="480" cy="192" r="0.9"/><circle cx="504" cy="192" r="0.9"/><circle cx="528" cy="192" r="0.9"/><circle cx="552" cy="192" r="0.9"/><circle cx="576" cy="192" r="0.9"/><circle cx="600" cy="192" r="0.9"/><circle cx="624" cy="192" r="0.9"/><circle cx="648" cy="192" r="0.9"/><circle cx="672" cy="192" r="0.9"/><circle cx="72" cy="216" r="0.9"/><circle cx="96" cy="216" r="0.9"/><circle cx="120" cy="216" r="0.9"/><circle cx="144" cy="216" r="0.9"/><circle cx="168" cy="216" r="0.9"/><circle cx="192" cy="216" r="0.9"/><circle cx="216" cy="216" r="0.9"/><circle cx="240" cy="216" r="0.9"/><circle cx="264" cy="216" r="0.9"/><circle cx="288" cy="216" r="0.9"/><circle cx="312" cy="216" r="0.9"/><circle cx="336" cy="216" r="0.9"/><circle cx="360" cy="216" r="0.9"/><circle cx="384" cy="216" r="0.9"/><circle cx="408" cy="216" r="0.9"/><circle cx="432" cy="216" r="0.9"/><circle cx="456" cy="216" r="0.9"/><circle cx="480" cy="216" r="0.9"/><circle cx="504" cy="216" r="0.9"/><circle cx="528" cy="216" r="0.9"/><circle cx="552" cy="216" r="0.9"/><circle cx="576" cy="216" r="0.9"/><circle cx="600" cy="216" r="0.9"/><circle cx="624" cy="216" r="0.9"/><circle cx="648" cy="216" r="0.9"/><circle cx="672" cy="216" r="0.9"/><circle cx="72" cy="240" r="0.9"/><circle cx="96" cy="240" r="0.9"/><circle cx="120" cy="240" r="0.9"/><circle cx="144" cy="240" r="0.9"/><circle cx="168" cy="240" r="0.9"/><circle cx="192" cy="240" r="0.9"/><circle cx="216" cy="240" r="0.9"/><circle cx="240" cy="240" r="0.9"/><circle cx="264" cy="240" r="0.9"/><circle cx="288" cy="240" r="0.9"/><circle cx="312" cy="240" r="0.9"/><circle cx="336" cy="240" r="0.9"/><circle cx="360" cy="240" r="0.9"/><circle cx="384" cy="240" r="0.9"/><circle cx="408" cy="240" r="0.9"/><circle cx="432" cy="240" r="0.9"/><circle cx="456" cy="240" r="0.9"/><circle cx="480" cy="240" r="0.9"/><circle cx="504" cy="240" r="0.9"/><circle cx="528" cy="240" r="0.9"/><circle cx="552" cy="240" r="0.9"/><circle cx="576" cy="240" r="0.9"/><circle cx="600" cy="240" r="0.9"/><circle cx="624" cy="240" r="0.9"/><circle cx="648" cy="240" r="0.9"/><circle cx="672" cy="240" r="0.9"/><circle cx="72" cy="264" r="0.9"/><circle cx="96" cy="264" r="0.9"/><circle cx="120" cy="264" r="0.9"/><circle cx="144" cy="264" r="0.9"/><circle cx="168" cy="264" r="0.9"/><circle cx="192" cy="264" r="0.9"/><circle cx="216" cy="264" r="0.9"/><circle cx="240" cy="264" r="0.9"/><circle cx="264" cy="264" r="0.9"/><circle cx="288" cy="264" r="0.9"/><circle cx="312" cy="264" r="0.9"/><circle cx="336" cy="264" r="0.9"/><circle cx="360" cy="264" r="0.9"/><circle cx="384" cy="264" r="0.9"/><circle cx="408" cy="264" r="0.9"/><circle cx="432" cy="264" r="0.9"/><circle cx="456" cy="264" r="0.9"/><circle cx="480" cy="264" r="0.9"/><circle cx="504" cy="264" r="0.9"/><circle cx="528" cy="264" r="0.9"/><circle cx="552" cy="264" r="0.9"/><circle cx="576" cy="264" r="0.9"/><circle cx="600" cy="264" r="0.9"/><circle cx="624" cy="264" r="0.9"/><circle cx="648" cy="264" r="0.9"/><circle cx="672" cy="264" r="0.9"/><circle cx="72" cy="288" r="0.9"/><circle cx="96" cy="288" r="0.9"/><circle cx="120" cy="288" r="0.9"/><circle cx="144" cy="288" r="0.9"/><circle cx="168" cy="288" r="0.9"/><circle cx="192" cy="288" r="0.9"/><circle cx="216" cy="288" r="0.9"/><circle cx="240" cy="288" r="0.9"/><circle cx="264" cy="288" r="0.9"/><circle cx="288" cy="288" r="0.9"/><circle cx="312" cy="288" r="0.9"/><circle cx="336" cy="288" r="0.9"/><circle cx="360" cy="288" r="0.9"/><circle cx="384" cy="288" r="0.9"/><circle cx="408" cy="288" r="0.9"/><circle cx="432" cy="288" r="0.9"/><circle cx="456" cy="288" r="0.9"/><circle cx="480" cy="288" r="0.9"/><circle cx="504" cy="288" r="0.9"/><circle cx="528" cy="288" r="0.9"/><circle cx="552" cy="288" r="0.9"/><circle cx="576" cy="288" r="0.9"/><circle cx="600" cy="288" r="0.9"/><circle cx="624" cy="288" r="0.9"/><circle cx="648" cy="288" r="0.9"/><circle cx="672" cy="288" r="0.9"/><circle cx="72" cy="312" r="0.9"/><circle cx="96" cy="312" r="0.9"/><circle cx="120" cy="312" r="0.9"/><circle cx="144" cy="312" r="0.9"/><circle cx="168" cy="312" r="0.9"/><circle cx="192" cy="312" r="0.9"/><circle cx="216" cy="312" r="0.9"/><circle cx="240" cy="312" r="0.9"/><circle cx="264" cy="312" r="0.9"/><circle cx="288" cy="312" r="0.9"/><circle cx="312" cy="312" r="0.9"/><circle cx="336" cy="312" r="0.9"/><circle cx="360" cy="312" r="0.9"/><circle cx="384" cy="312" r="0.9"/><circle cx="408" cy="312" r="0.9"/><circle cx="432" cy="312" r="0.9"/><circle cx="456" cy="312" r="0.9"/><circle cx="480" cy="312" r="0.9"/><circle cx="504" cy="312" r="0.9"/><circle cx="528" cy="312" r="0.9"/><circle cx="552" cy="312" r="0.9"/><circle cx="576" cy="312" r="0.9"/><circle cx="600" cy="312" r="0.9"/><circle cx="624" cy="312" r="0.9"/><circle cx="648" cy="312" r="0.9"/><circle cx="672" cy="312" r="0.9"/><circle cx="72" cy="336" r="0.9"/><circle cx="96" cy="336" r="0.9"/><circle cx="120" cy="336" r="0.9"/><circle cx="144" cy="336" r="0.9"/><circle cx="168" cy="336" r="0.9"/><circle cx="192" cy="336" r="0.9"/><circle cx="216" cy="336" r="0.9"/><circle cx="240" cy="336" r="0.9"/><circle cx="264" cy="336" r="0.9"/><circle cx="288" cy="336" r="0.9"/><circle cx="312" cy="336" r="0.9"/><circle cx="336" cy="336" r="0.9"/><circle cx="360" cy="336" r="0.9"/><circle cx="384" cy="336" r="0.9"/><circle cx="408" cy="336" r="0.9"/><circle cx="432" cy="336" r="0.9"/><circle cx="456" cy="336" r="0.9"/><circle cx="480" cy="336" r="0.9"/><circle cx="504" cy="336" r="0.9"/><circle cx="528" cy="336" r="0.9"/><circle cx="552" cy="336" r="0.9"/><circle cx="576" cy="336" r="0.9"/><circle cx="600" cy="336" r="0.9"/><circle cx="624" cy="336" r="0.9"/><circle cx="648" cy="336" r="0.9"/><circle cx="672" cy="336" r="0.9"/><circle cx="72" cy="360" r="0.9"/><circle cx="96" cy="360" r="0.9"/><circle cx="120" cy="360" r="0.9"/><circle cx="144" cy="360" r="0.9"/><circle cx="168" cy="360" r="0.9"/><circle cx="192" cy="360" r="0.9"/><circle cx="216" cy="360" r="0.9"/><circle cx="240" cy="360" r="0.9"/><circle cx="264" cy="360" r="0.9"/><circle cx="288" cy="360" r="0.9"/><circle cx="312" cy="360" r="0.9"/><circle cx="336" cy="360" r="0.9"/><circle cx="360" cy="360" r="0.9"/><circle cx="384" cy="360" r="0.9"/><circle cx="408" cy="360" r="0.9"/><circle cx="432" cy="360" r="0.9"/><circle cx="456" cy="360" r="0.9"/><circle cx="480" cy="360" r="0.9"/><circle cx="504" cy="360" r="0.9"/><circle cx="528" cy="360" r="0.9"/><circle cx="552" cy="360" r="0.9"/><circle cx="576" cy="360" r="0.9"/><circle cx="600" cy="360" r="0.9"/><circle cx="624" cy="360" r="0.9"/><circle cx="648" cy="360" r="0.9"/><circle cx="672" cy="360" r="0.9"/><circle cx="72" cy="384" r="0.9"/><circle cx="96" cy="384" r="0.9"/><circle cx="120" cy="384" r="0.9"/><circle cx="144" cy="384" r="0.9"/><circle cx="168" cy="384" r="0.9"/><circle cx="192" cy="384" r="0.9"/><circle cx="216" cy="384" r="0.9"/><circle cx="240" cy="384" r="0.9"/><circle cx="264" cy="384" r="0.9"/><circle cx="288" cy="384" r="0.9"/><circle cx="312" cy="384" r="0.9"/><circle cx="336" cy="384" r="0.9"/><circle cx="360" cy="384" r="0.9"/><circle cx="384" cy="384" r="0.9"/><circle cx="408" cy="384" r="0.9"/><circle cx="432" cy="384" r="0.9"/><circle cx="456" cy="384" r="0.9"/><circle cx="480" cy="384" r="0.9"/><circle cx="504" cy="384" r="0.9"/><circle cx="528" cy="384" r="0.9"/><circle cx="552" cy="384" r="0.9"/><circle cx="576" cy="384" r="0.9"/><circle cx="600" cy="384" r="0.9"/><circle cx="624" cy="384" r="0.9"/><circle cx="648" cy="384" r="0.9"/><circle cx="672" cy="384" r="0.9"/><circle cx="72" cy="408" r="0.9"/><circle cx="96" cy="408" r="0.9"/><circle cx="120" cy="408" r="0.9"/><circle cx="144" cy="408" r="0.9"/><circle cx="168" cy="408" r="0.9"/><circle cx="192" cy="408" r="0.9"/><circle cx="216" cy="408" r="0.9"/><circle cx="240" cy="408" r="0.9"/><circle cx="264" cy="408" r="0.9"/><circle cx="288" cy="408" r="0.9"/><circle cx="312" cy="408" r="0.9"/><circle cx="336" cy="408" r="0.9"/><circle cx="360" cy="408" r="0.9"/><circle cx="384" cy="408" r="0.9"/><circle cx="408" cy="408" r="0.9"/><circle cx="432" cy="408" r="0.9"/><circle cx="456" cy="408" r="0.9"/><circle cx="480" cy="408" r="0.9"/><circle cx="504" cy="408" r="0.9"/><circle cx="528" cy="408" r="0.9"/><circle cx="552" cy="408" r="0.9"/><circle cx="576" cy="408" r="0.9"/><circle cx="600" cy="408" r="0.9"/><circle cx="624" cy="408" r="0.9"/><circle cx="648" cy="408" r="0.9"/><circle cx="672" cy="408" r="0.9"/><circle cx="72" cy="432" r="0.9"/><circle cx="96" cy="432" r="0.9"/><circle cx="120" cy="432" r="0.9"/><circle cx="144" cy="432" r="0.9"/><circle cx="168" cy="432" r="0.9"/><circle cx="192" cy="432" r="0.9"/><circle cx="216" cy="432" r="0.9"/><circle cx="240" cy="432" r="0.9"/><circle cx="264" cy="432" r="0.9"/><circle cx="288" cy="432" r="0.9"/><circle cx="312" cy="432" r="0.9"/><circle cx="336" cy="432" r="0.9"/><circle cx="360" cy="432" r="0.9"/><circle cx="384" cy="432" r="0.9"/><circle cx="408" cy="432" r="0.9"/><circle cx="432" cy="432" r="0.9"/><circle cx="456" cy="432" r="0.9"/><circle cx="480" cy="432" r="0.9"/><circle cx="504" cy="432" r="0.9"/><circle cx="528" cy="432" r="0.9"/><circle cx="552" cy="432" r="0.9"/><circle cx="576" cy="432" r="0.9"/><circle cx="600" cy="432" r="0.9"/><circle cx="624" cy="432" r="0.9"/><circle cx="648" cy="432" r="0.9"/><circle cx="672" cy="432" r="0.9"/><circle cx="72" cy="456" r="0.9"/><circle cx="96" cy="456" r="0.9"/><circle cx="120" cy="456" r="0.9"/><circle cx="144" cy="456" r="0.9"/><circle cx="168" cy="456" r="0.9"/><circle cx="192" cy="456" r="0.9"/><circle cx="216" cy="456" r="0.9"/><circle cx="240" cy="456" r="0.9"/><circle cx="264" cy="456" r="0.9"/><circle cx="288" cy="456" r="0.9"/><circle cx="312" cy="456" r="0.9"/><circle cx="336" cy="456" r="0.9"/><circle cx="360" cy="456" r="0.9"/><circle cx="384" cy="456" r="0.9"/><circle cx="408" cy="456" r="0.9"/><circle cx="432" cy="456" r="0.9"/><circle cx="456" cy="456" r="0.9"/><circle cx="480" cy="456" r="0.9"/><circle cx="504" cy="456" r="0.9"/><circle cx="528" cy="456" r="0.9"/><circle cx="552" cy="456" r="0.9"/><circle cx="576" cy="456" r="0.9"/><circle cx="600" cy="456" r="0.9"/><circle cx="624" cy="456" r="0.9"/><circle cx="648" cy="456" r="0.9"/><circle cx="672" cy="456" r="0.9"/><circle cx="72" cy="480" r="0.9"/><circle cx="96" cy="480" r="0.9"/><circle cx="120" cy="480" r="0.9"/><circle cx="144" cy="480" r="0.9"/><circle cx="168" cy="480" r="0.9"/><circle cx="192" cy="480" r="0.9"/><circle cx="216" cy="480" r="0.9"/><circle cx="240" cy="480" r="0.9"/><circle cx="264" cy="480" r="0.9"/><circle cx="288" cy="480" r="0.9"/><circle cx="312" cy="480" r="0.9"/><circle cx="336" cy="480" r="0.9"/><circle cx="360" cy="480" r="0.9"/><circle cx="384" cy="480" r="0.9"/><circle cx="408" cy="480" r="0.9"/><circle cx="432" cy="480" r="0.9"/><circle cx="456" cy="480" r="0.9"/><circle cx="480" cy="480" r="0.9"/><circle cx="504" cy="480" r="0.9"/><circle cx="528" cy="480" r="0.9"/><circle cx="552" cy="480" r="0.9"/><circle cx="576" cy="480" r="0.9"/><circle cx="600" cy="480" r="0.9"/><circle cx="624" cy="480" r="0.9"/><circle cx="648" cy="480" r="0.9"/><circle cx="672" cy="480" r="0.9"/><circle cx="72" cy="504" r="0.9"/><circle cx="96" cy="504" r="0.9"/><circle cx="120" cy="504" r="0.9"/><circle cx="144" cy="504" r="0.9"/><circle cx="168" cy="504" r="0.9"/><circle cx="192" cy="504" r="0.9"/><circle cx="216" cy="504" r="0.9"/><circle cx="240" cy="504" r="0.9"/><circle cx="264" cy="504" r="0.9"/><circle cx="288" cy="504" r="0.9"/><circle cx="312" cy="504" r="0.9"/><circle cx="336" cy="504" r="0.9"/><circle cx="360" cy="504" r="0.9"/><circle cx="384" cy="504" r="0.9"/><circle cx="408" cy="504" r="0.9"/><circle cx="432" cy="504" r="0.9"/><circle cx="456" cy="504" r="0.9"/><circle cx="480" cy="504" r="0.9"/><circle cx="504" cy="504" r="0.9"/><circle cx="528" cy="504" r="0.9"/><circle cx="552" cy="504" r="0.9"/><circle cx="576" cy="504" r="0.9"/><circle cx="600" cy="504" r="0.9"/><circle cx="624" cy="504" r="0.9"/><circle cx="648" cy="504" r="0.9"/><circle cx="672" cy="504" r="0.9"/><circle cx="72" cy="528" r="0.9"/><circle cx="96" cy="528" r="0.9"/><circle cx="120" cy="528" r="0.9"/><circle cx="144" cy="528" r="0.9"/><circle cx="168" cy="528" r="0.9"/><circle cx="192" cy="528" r="0.9"/><circle cx="216" cy="528" r="0.9"/><circle cx="240" cy="528" r="0.9"/><circle cx="264" cy="528" r="0.9"/><circle cx="288" cy="528" r="0.9"/><circle cx="312" cy="528" r="0.9"/><circle cx="336" cy="528" r="0.9"/><circle cx="360" cy="528" r="0.9"/><circle cx="384" cy="528" r="0.9"/><circle cx="408" cy="528" r="0.9"/><circle cx="432" cy="528" r="0.9"/><circle cx="456" cy="528" r="0.9"/><circle cx="480" cy="528" r="0.9"/><circle cx="504" cy="528" r="0.9"/><circle cx="528" cy="528" r="0.9"/><circle cx="552" cy="528" r="0.9"/><circle cx="576" cy="528" r="0.9"/><circle cx="600" cy="528" r="0.9"/><circle cx="624" cy="528" r="0.9"/><circle cx="648" cy="528" r="0.9"/><circle cx="672" cy="528" r="0.9"/></g>
<g stroke="#141d7a" stroke-width="1.5" stroke-linecap="round" stroke-linejoin="round" fill="#141d7a">
<line x1="96" y1="104" x2="96" y2="128"/>
<line x1="144" y1="104" x2="352" y2="104"/>
<line x1="352" y1="104" x2="552" y2="104"/>
<line x1="352" y1="104" x2="352" y2="200"/>
<line x1="352" y1="248" x2="352" y2="280"/>
<line x1="552" y1="104" x2="552" y2="200"/>
<line x1="552" y1="248" x2="552" y2="280"/>
<line x1="352" y1="328" x2="448" y2="328"/>
<line x1="448" y1="328" x2="552" y2="328"/>
<line x1="448" y1="328" x2="448" y2="376"/>
<line x1="448" y1="424" x2="448" y2="512"/>
<line x1="232" y1="304" x2="232" y2="328"/>
<line x1="280" y1="304" x2="328" y2="304"/>
<line x1="432" y1="304" x2="432" y2="328"/>
<line x1="480" y1="304" x2="528" y2="304"/>
<circle cx="352" cy="104" r="2.6" fill="#141d7a"/>
<circle cx="448" cy="328" r="2.6" fill="#141d7a"/>
<g transform="translate(328,304) matrix(1,0,0,1,0,0)"><g transform="translate(0,0)"><line x1="0.0" y1="0.0" x2="13.0" y2="0.0" fill="none"/><rect x="13.0" y="-12.0" width="2.0" height="24.0" stroke="none" fill="#1a1a1a"/><polyline points="24,-24 24,-12 14,-2" fill="none"/><polyline points="24,24 24,12 14,2" fill="none"/></g><polygon points="20,12 24,12 24,8" fill="#1a1a1a"/></g>
<text x="340" y="284" stroke="none" fill="#1a1a1a">Q1</text>
<g transform="translate(528,304) matrix(1,0,0,1,0,0)"><g transform="translate(0,0)"><line x1="0.0" y1="0.0" x2="13.0" y2="0.0" fill="none"/><rect x="13.0" y="-12.0" width="2.0" height="24.0" stroke="none" fill="#1a1a1a"/><polyline points="24,-24 24,-12 14,-2" fill="none"/><polyline points="24,24 24,12 14,2" fill="none"/></g><polygon points="20,12 24,12 24,8" fill="#1a1a1a"/></g>
<text x="540" y="284" stroke="none" fill="#1a1a1a">Q2</text>
<g transform="translate(96,104) matrix(1,0,0,1,0,0)"><g transform="translate(0,0)"><line x1="0.0" y1="0.0" x2="12.0" y2="0.0" fill="none"/><line x1="36.0" y1="0.0" x2="48.0" y2="0.0" fill="none"/><ellipse cx="24.0" cy="0.0" rx="12.0" ry="12.0" fill="none"/></g></g>
<text x="108" y="84" stroke="none" fill="#1a1a1a">VP</text>
<text x="108" y="97" stroke="none" fill="#1a1a1a">DC=12</text>
<g transform="translate(96,128) matrix(0,1,-1,0,0,0)"><line x1="0.0" y1="0.0" x2="12.0" y2="0.0" fill="none"/><line x1="12.0" y1="-8.0" x2="12.0" y2="8.0" fill="none"/><line x1="18.0" y1="-4.0" x2="18.0" y2="4.0" fill="none"/></g>
<g transform="translate(352,200) matrix(0,1,-1,0,0,0)"><polyline points="0,0 12,0 14,-4 18,4 22,-4 26,4 30,-4 34,4 36,0 48,0" fill="none"/></g>
<text x="364" y="180" stroke="none" fill="#1a1a1a">Rc1</text>
<text x="364" y="193" stroke="none" fill="#1a1a1a">10K</text>
<g transform="translate(552,200) matrix(0,1,-1,0,0,0)"><polyline points="0,0 12,0 14,-4 18,4 22,-4 26,4 30,-4 34,4 36,0 48,0" fill="none"/></g>
<text x="564" y="180" stroke="none" fill="#1a1a1a">Rc2</text>
<text x="564" y="193" stroke="none" fill="#1a1a1a">10K</text>
<g transform="translate(448,376) matrix(0,1,-1,0,0,0)"><polyline points="0,0 12,0 14,-4 18,4 22,-4 26,4 30,-4 34,4 36,0 48,0" fill="none"/></g>
<text x="460" y="356" stroke="none" fill="#1a1a1a">Rt</text>
<text x="460" y="369" stroke="none" fill="#1a1a1a">4.41667K</text>
<g transform="translate(448,512) matrix(0,1,-1,0,0,0)"><line x1="0.0" y1="0.0" x2="12.0" y2="0.0" fill="none"/><line x1="12.0" y1="-8.0" x2="12.0" y2="8.0" fill="none"/><line x1="18.0" y1="-4.0" x2="18.0" y2="4.0" fill="none"/></g>
<g transform="translate(232,304) matrix(1,0,0,1,0,0)"><g transform="translate(0,0)"><line x1="0.0" y1="0.0" x2="12.0" y2="0.0" fill="none"/><line x1="36.0" y1="0.0" x2="48.0" y2="0.0" fill="none"/><ellipse cx="24.0" cy="0.0" rx="12.0" ry="12.0" fill="none"/></g></g>
<text x="244" y="284" stroke="none" fill="#1a1a1a">Vin</text>
<text x="244" y="297" stroke="none" fill="#1a1a1a">DC=6 AC=1</text>
<g transform="translate(232,328) matrix(0,1,-1,0,0,0)"><line x1="0.0" y1="0.0" x2="12.0" y2="0.0" fill="none"/><line x1="12.0" y1="-8.0" x2="12.0" y2="8.0" fill="none"/><line x1="18.0" y1="-4.0" x2="18.0" y2="4.0" fill="none"/></g>
<g transform="translate(432,304) matrix(1,0,0,1,0,0)"><g transform="translate(0,0)"><line x1="0.0" y1="0.0" x2="12.0" y2="0.0" fill="none"/><line x1="36.0" y1="0.0" x2="48.0" y2="0.0" fill="none"/><ellipse cx="24.0" cy="0.0" rx="12.0" ry="12.0" fill="none"/></g></g>
<text x="444" y="284" stroke="none" fill="#1a1a1a">Vb2</text>
<text x="444" y="297" stroke="none" fill="#1a1a1a">DC=6</text>
<g transform="translate(432,328) matrix(0,1,-1,0,0,0)"><line x1="0.0" y1="0.0" x2="12.0" y2="0.0" fill="none"/><line x1="12.0" y1="-8.0" x2="12.0" y2="8.0" fill="none"/><line x1="18.0" y1="-4.0" x2="18.0" y2="4.0" fill="none"/></g>
<text x="356" y="276" font-weight="bold" fill="#141d7a" stroke="none">OUTP</text>
<text x="556" y="276" font-weight="bold" fill="#141d7a" stroke="none">OUTN</text>
<text x="284" y="300" font-weight="bold" fill="#141d7a" stroke="none">IN</text>
</g></svg>