<svg xmlns="http://www.w3.org/2000/svg" viewBox="56 136 500 200" width="500" height="200" font-family="Verdana,Geneva,sans-serif" font-size="11">
<rect x="56" y="136" width="500" height="200" fill="white"/>
<style>text{paint-order:stroke;stroke:white;stroke-width:2.5px;stroke-linejoin:round}</style>
<g fill="#c4ccd4" stroke="none"><circle cx="72" cy="144" r="0.9"/><circle cx="96" cy="144" r="0.9"/><circle cx="120" cy="144" r="0.9"/><circle cx="144" cy="144" r="0.9"/><circle cx="168" cy="144" r="0.9"/><circle cx="192" cy="144" r="0.9"/><circle cx="216" cy="144" r="0.9"/><circle cx="240" cy="144" r="0.9"/><circle cx="264" cy="144" r="0.9"/><circle cx="288" cy="144" r="0.9"/><circle cx="312" cy="144" r="0.9"/><circle cx="336" cy="144" r="0.9"/><circle cx="360" cy="144" r="0.9"/><circle cx="384" cy="144" r="0.9"/><circle cx="408" cy="144" r="0.9"/><circle cx="432" cy="144" r="0.9"/><circle cx="456" cy="144" r="0.9"/><circle cx="480" cy="144" r="0.9"/><circle cx="504" cy="144" r="0.9"/><circle cx="528" cy="144" r="0.9"/><circle cx="552" cy="144" r="0.9"/><circle cx="72" cy="168" r="0.9"/><circle cx="96" cy="168" r="0.9"/><circle cx="120" cy="168" r="0.9"/><circle cx="144" cy="168" r="0.9"/><circle cx="168" cy="168" r="0.9"/><circle cx="192" cy="168" r="0.9"/><circle cx="216" cy="168" r="0.9"/><circle cx="240" cy="168" r="0.9"/><circle cx="264" cy="168" r="0.9"/><circle cx="288" cy="168" r="0.9"/><circle cx="312" cy="168" r="0.9"/><circle cx="336" cy="168" r="0.9"/><circle cx="360" cy="168" r="0.9"/><circle cx="384" cy="168" r="0.9"/><circle cx="408" cy="168" r="0.9"/><circle cx="432" cy="168" r="0.9"/><circle cx="456" cy="168" r="0.9"/><circle cx="480" cy="168" r="0.9"/><circle cx="504" cy="168" r="0.9"/><circle cx="528" cy="168" r="0.9"/><circle cx="552" cy="168" r="0.9"/><circle cx="72" cy="192" r="0.9"/><circle cx="96" cy="192" r="0.9"/><circle cx="120" cy="192" r="0.9"/><circle cx="144" cy="192" r="0.9"/><circle cx="168" cy="192" r="0.9"/><circle cx="192" cy="192" r="0.9"/><circle cx="216" cy="192" r="0.9"/><circle cx="240" cy="192" r="0.9"/><circle cx="264" cy="192" r="0.9"/><circle cx="288" cy="192" r="0.9"/><circle cx="312" cy="192" r="0.9"/><circle cx="336" cy="192" r="0.9"/><circle cx="360" cy="192" r="0.9"/><circle cx="384" cy="192" r="0.9"/><circle cx="408" cy="192" r="0.9"/><circle cx="432" cy="192" r="0.9"/><circle cx="456" cy="192" r="0.9"/><circle cx="480" cy="192" r="0.9"/><circle cx="504" cy="192" r="0.9"/><circle cx="528" cy="192" r="0.9"/><circle cx="552" cy="192" r="0.9"/><circle cx="72" cy="216" r="0.9"/><circle cx="96" cy="216" r="0.9"/><circle cx="120" cy="216" r="0.9"/><circle cx="144" cy="216" r="0.9"/><circle cx="168" cy="216" r="0.9"/><circle cx="192" cy="216" r="0.9"/><circle cx="216" cy="216" r="0.9"/><circle cx="240" cy="216" r="0.9"/><circle cx="264" cy="216" r="0.9"/><circle cx="288" cy="216" r="0.9"/><circle cx="312" cy="216" r="0.9"/><circle cx="336" cy="216" r="0.9"/><circle cx="360" cy="216" r="0.9"/><circle cx="384" cy="216" r="0.9"/><circle cx="408" cy="216" r="0.9"/><circle cx="432" cy="216" r="0.9"/><circle cx="456" cy="216" r="0.9"/><circle cx="480" cy="216" r="0.9"/><circle cx="504" cy="216" r="0.9"/><circle cx="528" cy="216" r="0.9"/><circle cx="552" cy="216" r="0.9"/><circle cx="72" cy="240" r="0.9"/><circle cx="96" cy="240" r="0.9"/><circle cx="120" cy="240" r="0.9"/><circle cx="144" cy="240" r="0.9"/><circle cx="168" cy="240" r="0.9"/><circle cx="192" cy="240" r="0.9"/><circle cx="216" cy="240" r="0.9"/><circle cx="240" cy="240" r="0.9"/><circle cx="264" cy="240" r="0.9"/><circle cx="288" cy="240" r="0.9"/><circle cx="312" cy="240" r="0.9"/><circle cx="336" cy="240" r="0.9"/><circle cx="360" cy="240" r="0.9"/><circle cx="384" cy="240" r="0.9"/><circle cx="408" cy="240" r="0.9"/><circle cx="432" cy="240" r="0.9"/><circle cx="456" cy="240" r="0.9"/><circle cx="480" cy="240" r="0.9"/><circle cx="504" cy="240" r="0.9"/><circle cx="528" cy="240" r="0.9"/><circle cx="552" cy="240" r="0.9"/><circle cx="72" cy="264" r="0.9"/><circle cx="96" cy="264" r="0.9"/><circle cx="120" cy="264" r="0.9"/><circle cx="144" cy="264" r="0.9"/><circle cx="168" cy="264" r="0.9"/><circle cx="192" cy="264" r="0.9"/><circle cx="216" cy="264" r="0.9"/><circle cx="240" cy="264" r="0.9"/><circle cx="264" cy="264" r="0.9"/><circle cx="288" cy="264" r="0.9"/><circle cx="312" cy="264" r="0.9"/><circle cx="336" cy="264" r="0.9"/><circle cx="360" cy="264" r="0.9"/><circle cx="384" cy="264" r="0.9"/><circle cx="408" cy="264" r="0.9"/><circle cx="432" cy="264" r="0.9"/><circle cx="456" cy="264" r="0.9"/><circle cx="480" cy="264" r="0.9"/><circle cx="504" cy="264" r="0.9"/><circle cx="528" cy="264" r="0.9"/><circle cx="552" cy="264" r="0.9"/><circle cx="72" cy="288" r="0.9"/><circle cx="96" cy="288" r="0.9"/><circle cx="120" cy="288" r="0.9"/><circle cx="144" cy="288" r="0.9"/><circle cx="168" cy="288" r="0.9"/><circle cx="192" cy="288" r="0.9"/><circle cx="216" cy="288" r="0.9"/><circle cx="240" cy="288" r="0.9"/><circle cx="264" cy="288" r="0.9"/><circle cx="288" cy="288" r="0.9"/><circle cx="312" cy="288" r="0.9"/><circle cx="336" cy="288" r="0.9"/><circle cx="360" cy="288" r="0.9"/><circle cx="384" cy="288" r="0.9"/><circle cx="408" cy="288" r="0.9"/><circle cx="432" cy="288" r="0.9"/><circle cx="456" cy="288" r="0.9"/><circle cx="480" cy="288" r="0.9"/><circle cx="504" cy="288" r="0.9"/><circle cx="528" cy="288" r="0.9"/><circle cx="552" cy="288" r="0.9"/><circle cx="72" cy="312" r="0.9"/><circle cx="96" cy="312" r="0.9"/><circle cx="120" cy="312" r="0.9"/><circle cx="144" cy="312" r="0.9"/><circle cx="168" cy="312" r="0.9"/><circle cx="192" cy="312" r="0.9"/><circle cx="216" cy="312" r="0.9"/><circle cx="240" cy="312" r="0.9"/><circle cx="264" cy="312" r="0.9"/><circle cx="288" cy="312" r="0.9"/><circle cx="312" cy="312" r="0.9"/><circle cx="336" cy="312" r="0.9"/><circle cx="360" cy="312" r="0.9"/><circle cx="384" cy="312" r="0.9"/><circle cx="408" cy="312" r="0.9"/><circle cx="432" cy="312" r="0.9"/><circle cx="456" cy="312" r="0.9"/><circle cx="480" cy="312" r="0.9"/><circle cx="504" cy="312" r="0.9"/><circle cx="528" cy="312" r="0.9"/><circle cx="552" cy="312" r="0.9"/></g>
<g stroke="#141d7a" stroke-width="1.5" stroke-linecap="round" stroke-linejoin="round" fill="#141d7a">
<line x1="96" y1="272" x2="96" y2="296"/>
<line x1="320" y1="224" x2="288" y2="224"/>
<line x1="144" y1="272" x2="168" y2="272"/>
<line x1="216" y1="272" x2="320" y2="272"/>
<line x1="392" y1="248" x2="432" y2="248"/>
<line x1="432" y1="248" x2="432" y2="176"/>
<line x1="432" y1="176" x2="376" y2="176"/>
<line x1="328" y1="176" x2="320" y2="176"/>
<line x1="320" y1="176" x2="320" y2="272"/>
<g transform="translate(320,224) matrix(1,0,0,1,0,0)"><g transform="translate(0,0)"><line x1="0.0" y1="48.0" x2="6.0" y2="48.0" fill="none"/><line x1="0.0" y1="0.0" x2="5.0" y2="0.0" fill="none"/><line x1="6.0" y1="-4.0" x2="6.0" y2="52.0" fill="none"/><line x1="6.0" y1="-4.0" x2="48.0" y2="24.0" fill="none"/><line x1="6.0" y1="52.0" x2="48.0" y2="24.0" fill="none"/><line x1="48.0" y1="24.0" x2="72.0" y2="24.0" fill="none"/><line x1="10.0" y1="12.0" x2="14.0" y2="12.0" fill="none"/><line x1="12.0" y1="10.0" x2="12.0" y2="14.0" fill="none"/><line x1="10.0" y1="36.0" x2="14.0" y2="36.0" fill="none"/></g><g transform="translate(25,-4)"><line x1="-2.0" y1="0.0" x2="2.0" y2="0.0" fill="none"/><line x1="0.0" y1="-2.0" x2="0.0" y2="2.0" fill="none"/></g><g transform="translate(25,52)"><line x1="-2.0" y1="0.0" x2="2.0" y2="0.0" fill="none"/></g></g>
<text x="332" y="204" stroke="none" fill="#1a1a1a">O1</text>
<g transform="translate(96,272) matrix(1,0,0,1,0,0)"><g transform="translate(0,0)"><line x1="0.0" y1="0.0" x2="12.0" y2="0.0" fill="none"/><line x1="36.0" y1="0.0" x2="48.0" y2="0.0" fill="none"/><ellipse cx="24.0" cy="0.0" rx="12.0" ry="12.0" fill="none"/></g></g>
<text x="108" y="252" stroke="none" fill="#1a1a1a">V1</text>
<text x="108" y="265" stroke="none" fill="#1a1a1a">DC=0 AC=1</text>
<g transform="translate(96,296) matrix(0,1,-1,0,0,0)"><line x1="0.0" y1="0.0" x2="12.0" y2="0.0" fill="none"/><line x1="12.0" y1="-8.0" x2="12.0" y2="8.0" fill="none"/><line x1="18.0" y1="-4.0" x2="18.0" y2="4.0" fill="none"/></g>
<g transform="translate(288,224) matrix(0,1,-1,0,0,0)"><line x1="0.0" y1="0.0" x2="12.0" y2="0.0" fill="none"/><line x1="12.0" y1="-8.0" x2="12.0" y2="8.0" fill="none"/><line x1="18.0" y1="-4.0" x2="18.0" y2="4.0" fill="none"/></g>
<g transform="translate(168,272) matrix(1,0,0,1,0,0)"><polyline points="0,0 12,0 14,-4 18,4 22,-4 26,4 30,-4 34,4 36,0 48,0" fill="none"/></g>
<text x="180" y="252" stroke="none" fill="#1a1a1a">Rin</text>
<text x="180" y="265" stroke="none" fill="#1a1a1a">1K</text>
<g transform="translate(328,176) matrix(1,0,0,1,0,0)"><polyline points="0,0 12,0 14,-4 18,4 22,-4 26,4 30,-4 34,4 36,0 48,0" fill="none"/></g>
<text x="340" y="156" stroke="none" fill="#1a1a1a">Rf</text>
<text x="340" y="169" stroke="none" fill="#1a1a1a">10K</text>
<text x="436" y="244" font-weight="bold" fill="#141d7a" stroke="none">OUT</text>
</g></svg>